<?xml version="1.0" encoding="utf-8"?>
<!-- Generator: Adobe Illustrator 23.0.6, SVG Export Plug-In . SVG Version: 6.00 Build 0)  -->
<svg version="1.1" id="Layer_1" xmlns="http://www.w3.org/2000/svg" xmlns:xlink="http://www.w3.org/1999/xlink" x="0px" y="0px"
	 viewBox="0 0 71 124.02" style="enable-background:new 0 0 71 124.02;" xml:space="preserve">
<style type="text/css">
	.st0{fill:none;stroke:#010101;stroke-miterlimit:10;}
	.st1{fill:#010101;}
	.st2{fill:none;stroke:#010101;stroke-linecap:round;stroke-linejoin:round;stroke-miterlimit:10;}
</style>
<g>
	<g>
		<line class="st0" x1="18.24" y1="35.5" x2="52.76" y2="35.5"/>
		<line class="st0" x1="35.5" y1="18.24" x2="35.5" y2="52.76"/>
	</g>
	<line class="st0" x1="18.24" y1="88.52" x2="52.76" y2="88.52"/>
	<path class="st0" d="M57.85,59.09C64.28,53,68.22,44.31,67.99,34.7C67.56,16.95,52.65,2.68,34.9,3.01C17.23,3.33,3,17.75,3,35.5
		c0,9.29,3.9,17.67,10.16,23.59c1.67,1.58,1.67,4.26-0.01,5.84C6.72,71.02,2.78,79.71,3.01,89.32
		c0.43,17.75,15.34,32.01,33.09,31.69C53.77,120.69,68,106.27,68,88.52c0-9.29-3.9-17.67-10.16-23.59
		C56.17,63.35,56.18,60.67,57.85,59.09z"/>
</g>
</svg>
